<?xml version="1.0" encoding="UTF-8" standalone="no"?>
<!-- Created with Inkscape (http://www.inkscape.org/) -->

<svg
   xmlns:dc="http://purl.org/dc/elements/1.1/"
   xmlns:cc="http://creativecommons.org/ns#"
   xmlns:rdf="http://www.w3.org/1999/02/22-rdf-syntax-ns#"
   xmlns:svg="http://www.w3.org/2000/svg"
   xmlns="http://www.w3.org/2000/svg"
   xmlns:sodipodi="http://sodipodi.sourceforge.net/DTD/sodipodi-0.dtd"
   xmlns:inkscape="http://www.inkscape.org/namespaces/inkscape"
   width="1052.3622"
   height="744.09448"
   id="svg3251"
   version="1.1"
   inkscape:version="0.48.4 r9939"
   sodipodi:docname="jobs.svg">
  <defs
     id="defs3253" />
  <sodipodi:namedview
     id="base"
     pagecolor="#ffffff"
     bordercolor="#666666"
     borderopacity="1.0"
     inkscape:pageopacity="0.0"
     inkscape:pageshadow="2"
     inkscape:zoom="1"
     inkscape:cx="375"
     inkscape:cy="190.42076"
     inkscape:document-units="px"
     inkscape:current-layer="layer1"
     showgrid="false"
     inkscape:window-width="1535"
     inkscape:window-height="876"
     inkscape:window-x="65"
     inkscape:window-y="24"
     inkscape:window-maximized="1" />
  <metadata
     id="metadata3256">
    <rdf:RDF>
      <cc:Work
         rdf:about="">
        <dc:format>image/svg+xml</dc:format>
        <dc:type
           rdf:resource="http://purl.org/dc/dcmitype/StillImage" />
        <dc:title></dc:title>
      </cc:Work>
    </rdf:RDF>
  </metadata>
  <g
     inkscape:label="Layer 1"
     inkscape:groupmode="layer"
     id="layer1"
     transform="translate(0,-308.2677)">
    <g
       id="Page-1"
       style="fill:none;stroke:none"
       transform="matrix(0.5002811,0,0.00858944,0.46427648,37.71401,341.23261)"
       inkscape:export-filename="/home/pi/Documents/flink_ssp/elt.png"
       inkscape:export-xdpi="90"
       inkscape:export-ydpi="90">
      <g
         transform="translate(-229,-348)"
         id="Desktop-HD">
        <g
           transform="translate(229,348)"
           id="Group">
          <path
             id="Shape"
             d="m 104.4456,327.70437 c -2.36369,-0.88689 -1.9205,-29.85849 0.44319,-29.85849 l 373.46318,0 c 204.31154,0 373.75864,-0.44345 376.27006,-0.88689 l 4.72738,-0.88688 0.29546,-47.59622 0.4432,-47.4484 14.77307,0 14.77306,0 0,63.26453 0,63.11672 -391.92951,0.44345 C 282.31335,328 105.18425,328 104.4456,327.70437 l 0,0 z"
             inkscape:connector-curvature="0"
             style="fill:#1f4475" />
          <path
             id="path3036"
             d="M 101.78644,259.11852 C 101.04779,258.08382 87.013375,233.25101 70.763,203.98378 54.660355,174.71654 31.909829,133.91978 20.386835,113.22578 8.8638413,92.679585 -0.29546138,74.794051 0.14773069,73.611537 0.88638413,71.985579 4.4319207,71.68995 17.579952,71.985579 l 16.545837,0.443443 7.238804,12.564218 c 3.988728,6.947274 19.500451,34.73637 34.568981,61.78639 15.06853,26.90221 27.773366,49.07436 28.364296,49.07436 0.88638,0 8.86384,-13.74673 47.12609,-82.03695 l 23.19371,-41.388018 65.00151,0 65.0015,0 0,14.781433 0,14.781435 -55.10355,0.73907 -55.10354,0.73907 -3.69327,6.65165 c -2.06823,3.69536 -19.94364,35.62325 -39.73956,70.95087 -42.3987,76.12439 -43.87601,78.63723 -45.94424,79.3763 -0.88638,0.29563 -2.36369,-0.29563 -3.25008,-1.33033 l 0,0 z"
             inkscape:connector-curvature="0"
             style="fill:#1a2c49" />
          <path
             id="path3038"
             d="m 177.57229,251.7278 c -0.4432,-1.0347 -0.59093,-24.8328 -0.4432,-52.91753 l 0.4432,-50.99594 63.52419,0 63.5242,0 0,14.78143 0,14.78144 -48.30794,0.44344 -48.45566,0.29563 0,22.17215 0,22.17215 48.45566,0.29563 48.30794,0.44344 0,14.78143 0,14.78144 -63.22874,0.44344 c -49.93297,0.29563 -63.37646,0 -63.81965,-1.47815 l 0,0 z"
             inkscape:connector-curvature="0"
             style="fill:#1a2c49" />
          <path
             id="path3040"
             d="m 314.96183,251.7278 c -0.44319,-1.0347 -0.59093,-41.83145 -0.44319,-90.61018 l 0.44319,-88.688598 48.75113,-0.443443 c 30.87571,-0.295629 52.29666,0.147814 58.35362,1.182515 19.64818,3.399729 34.12578,15.077061 39.14863,31.632266 2.80688,9.3123 2.80688,30.74538 0,40.2055 -2.51142,8.42541 -10.04569,18.03335 -18.17088,22.91122 -2.95461,1.77377 -5.61376,3.39973 -5.90922,3.54754 -0.14773,0.14782 7.68199,14.92925 17.57995,32.66697 22.45506,40.50113 25.26195,46.11807 24.22783,47.89184 -0.59092,0.88689 -8.12519,1.47815 -16.98903,1.47815 l -16.25037,0 -3.39781,-5.46913 c -1.9205,-3.1041 -11.0798,-19.21587 -20.2391,-35.91889 -9.15931,-16.70301 -17.57996,-31.48445 -18.90953,-32.81478 -1.9205,-2.36503 -5.31831,-2.66066 -29.10295,-2.66066 l -27.03471,0 -0.88639,13.74674 c -0.59092,7.39071 -0.88638,23.94592 -0.59092,36.51014 0.14773,12.56422 -0.14773,23.7981 -0.73865,24.8328 -0.88639,1.18252 -5.61377,1.77378 -15.21626,1.77378 -9.75023,0 -14.18215,-0.59126 -14.62534,-1.77378 l 0,0 z M 421.62338,143.23209 c 7.53427,-2.95629 11.07981,-9.90356 10.34115,-20.39838 -0.44319,-7.53853 -1.18184,-9.3123 -5.17057,-12.85985 -7.2388,-6.50383 -13.29576,-7.39071 -48.6034,-6.94727 l -32.20529,0.44344 -0.44319,17.73772 c -0.59092,26.90221 -3.54554,24.24155 28.21656,24.68499 31.61437,0.59126 41.36459,0 47.86474,-2.66065 l 0,0 z"
             inkscape:connector-curvature="0"
             style="fill:#1a2c49" />
          <path
             id="path3042"
             d="m 515.87556,251.7278 c -0.44319,-1.0347 -0.88638,-34.88418 -1.18184,-75.08968 l -0.29546,-73.16809 -20.97776,-0.44344 -20.83003,-0.44344 -4.57965,-7.981978 c -2.51142,-4.582245 -7.09107,-10.790446 -10.04569,-14.190176 -3.3978,-3.695358 -4.87511,-6.356016 -3.84099,-7.390717 0.88638,-0.886886 29.69386,-1.182514 76.67222,-1.0347 l 75.19492,0.443443 0,14.781433 0,14.781435 -29.8416,0.44344 -29.98933,0.29563 -0.29546,75.08968 -0.44319,74.94187 -14.47761,0.44344 c -10.63661,0.29563 -14.62533,-0.14782 -15.06853,-1.47815 l 0,0 z"
             inkscape:connector-curvature="0"
             style="fill:#1a2c49" />
          <path
             id="path3044"
             d="m 616.33243,251.7278 c -0.44319,-1.0347 -0.59092,-41.83145 -0.44319,-90.61018 l 0.44319,-88.688598 14.77307,0 14.77307,0 0,90.166738 0,90.16675 -14.47761,0.44344 c -10.63661,0.29563 -14.62534,-0.14782 -15.06853,-1.47815 l 0,0 z"
             inkscape:connector-curvature="0"
             style="fill:#1a2c49" />
          <path
             id="path3046"
             d="m 725.65314,250.98873 c -57.31951,-12.12077 -87.16111,-77.30689 -60.27412,-131.85038 10.78434,-21.87652 33.09167,-39.762054 57.31951,-45.970256 21.12549,-5.46913 48.30793,-2.956287 66.03561,6.060387 9.30704,4.730059 24.81876,17.442091 24.81876,20.398378 0,2.660661 -12.26165,24.537181 -14.62534,25.867511 -0.73865,0.59125 -5.3183,-2.51285 -10.04568,-6.50383 -4.72739,-4.1388 -12.85257,-9.60794 -18.17088,-12.26859 -8.71611,-4.28662 -10.78434,-4.73006 -23.63691,-4.73006 -12.70484,0 -14.9208,0.44344 -24.0801,4.73006 -24.81876,11.82514 -39.88729,39.31861 -35.30764,64.29923 4.72739,25.57188 24.67103,45.52681 50.22844,50.25687 17.28449,3.25192 37.52359,-3.39973 50.52389,-16.40739 6.35242,-6.50383 15.51173,-21.28526 65.59243,-107.313202 18.46633,-31.484452 19.94364,-33.701667 22.30733,-32.07571 0.88639,0.591258 18.46634,30.301938 39.14863,66.073002 20.53457,35.77107 44.31921,77.01127 52.73986,91.49707 8.42065,14.63362 15.06853,27.34566 14.62534,28.52817 -0.59092,1.47814 -4.72738,1.92159 -16.8413,1.92159 -13.44349,0 -16.39811,-0.44345 -18.46634,-2.51285 -1.18184,-1.47814 -18.02314,-29.85849 -37.37586,-63.11672 -28.21656,-48.33528 -35.45537,-59.8648 -36.63721,-57.94321 -0.88638,1.18251 -12.55711,20.98963 -26.0006,43.90085 -29.10295,49.66562 -36.78494,58.83011 -57.61497,69.02929 -6.94334,3.39973 -16.54584,7.24291 -21.42095,8.42542 -10.93207,2.80847 -29.25068,2.66066 -42.8419,-0.29563 l 0,0 z"
             inkscape:connector-curvature="0"
             style="fill:#1a2c49" />
          <path
             id="path3048"
             d="M 90.411181,124.60748 C 89.967989,123.57278 89.820258,95.044615 89.967989,61.342947 L 90.411181,0 482.63616,0 l 392.22498,0 0,14.781433 0,14.781433 -377.00872,0.443443 -377.15645,0.295629 -0.29546,47.744029 -0.44319,47.596213 -14.47761,0.44344 c -10.636608,0.29563 -14.625337,-0.14781 -15.068529,-1.47814 l 0,0 z"
             inkscape:connector-curvature="0"
             style="fill:#1f4475" />
        </g>
      </g>
    </g>
    <path
       style="fill:#ff0000"
       id="path3065"
       d="m 112.56207,498.15134 c 3.53689,2.69582 7.39127,4.92546 11.02394,7.49135 3.09205,2.09442 5.31054,5.07537 7.54148,8.01997 2.38248,3.04324 4.92203,5.92939 7.11368,9.11969 5.20655,6.82582 8.47569,14.55319 11.54383,22.42133 1.66708,3.6044 2.52438,7.49041 3.68152,11.26958 1.12133,3.35616 1.33741,6.90451 1.52567,10.41329 0.11397,3.15234 0.1164,6.30753 0.10771,9.46154 -0.45643,3.30026 -0.54921,6.64522 -1.0432,9.93711 -0.30526,2.99657 -1.11732,5.89231 -1.56515,8.86493 -0.31538,2.35136 -0.92211,4.63989 -1.19427,7.00254 -0.41135,2.09421 -1.11097,4.10014 -1.63404,6.16322 -0.4455,1.95004 -0.51163,3.95474 -0.55737,5.94666 -0.16987,1.99844 -0.39015,4.11943 -1.01348,6.03766 -0.9265,1.79715 -2.69376,3.05773 -4.28988,4.2429 -1.39136,1.04621 -2.58431,2.25034 -3.74847,3.54392 -1.35501,1.58574 -2.74683,3.16874 -3.84865,4.95097 -0.19,0.29247 -0.38,0.58496 -0.57,0.87744 0,0 -8.00285,-12.58647 -8.00285,-12.58647 l 0,0 c 0.1907,-0.29561 0.3814,-0.59122 0.5721,-0.88682 1.22529,-1.78332 2.62766,-3.43207 4.03831,-5.06718 1.21781,-1.3771 2.51718,-2.62481 3.99127,-3.72289 1.342,-1.0036 2.9279,-2.02447 3.45659,-3.69877 0.39795,-1.91632 0.73285,-3.86425 0.74293,-5.82696 0.0995,-2.06773 0.27094,-4.14003 0.8393,-6.13957 0.56983,-1.99624 1.16381,-3.99006 1.47858,-6.04852 0.363,-2.33972 0.95553,-4.63369 1.25987,-6.98352 0.52397,-2.93365 1.26311,-5.82661 1.55245,-8.801 0.37416,-3.27146 0.67577,-6.56061 0.86838,-9.84691 -0.001,-3.12487 0.0193,-6.25226 -0.15789,-9.37346 -0.23572,-3.45592 -0.65585,-6.89361 -1.77726,-10.18833 -1.0741,-3.78227 -2.16854,-7.56151 -3.76272,-11.16327 -0.72738,-1.84026 -1.46969,-3.67269 -2.24421,-5.49337 -0.21787,-0.51216 -0.9495,-2.0087 -0.66214,-1.53273 1.99443,3.30355 9.46406,16.18029 5.79236,10.02547 -0.70716,-1.02884 -1.33207,-2.11461 -2.05893,-3.12938 -1.52173,-2.1245 -3.49285,-3.89099 -4.99486,-6.03369 -2.2212,-2.90443 -4.24811,-6.00406 -7.17058,-8.25372 -3.54742,-2.61851 -7.26362,-4.95203 -11.03144,-7.23175 0,0 -5.80258,-13.78126 -5.80258,-13.78126 z"
       inkscape:connector-curvature="0"
       inkscape:export-filename="/home/pi/Documents/flink_ssp/elt.png"
       inkscape:export-xdpi="90"
       inkscape:export-ydpi="90" />
    <path
       style="fill:#ff0000"
       id="path3067"
       d="m 178.46607,603.90364 c -4.07957,4.1103 -8.11027,8.27463 -12.10325,12.47225 -4.08446,4.33506 -8.66924,8.12536 -13.12027,12.05715 -2.76341,2.52915 -5.34588,5.30348 -7.62657,8.28583 -1.64511,2.30928 -3.77225,4.21722 -5.93304,6.02165 -5.24411,6.02437 -10.85512,-5.58486 -10.68897,-12.39095 -0.76548,-3.55614 -1.33352,-7.153 -2.17,-10.69468 -0.9796,-3.93403 -1.74028,-7.92898 -2.8845,-11.81899 -1.11663,-3.20308 -1.67516,-6.56032 -2.52378,-9.83179 -0.18587,-0.71654 -1.18993,-3.76503 -1.44426,-4.54577 -1.08041,-3.04597 -1.62173,-6.2318 -1.86666,-9.44603 -0.0181,-0.39174 -0.0362,-0.78349 -0.0543,-1.17523 0,0 8.7724,12.03071 8.7724,12.03071 l 0,0 c 0.028,0.37856 0.0559,0.75712 0.0839,1.13568 0.3343,3.10842 0.99548,6.15628 2.01414,9.11426 1.44807,4.78221 2.42943,9.68894 3.96198,14.44874 1.03386,3.91351 1.8671,7.88075 2.79125,11.8216 0.77664,3.6481 1.51271,7.30709 2.24451,10.96384 2.32553,6.19911 -7.77265,-14.71723 -7.49335,-11.19852 0.0247,0.31163 0.5743,-0.25485 0.81358,-0.45344 0.28586,-0.23726 0.55637,-0.49274 0.83455,-0.73912 2.06798,-1.77593 4.12609,-3.58034 5.70515,-5.83462 2.43216,-2.95665 5.04418,-5.79322 7.94451,-8.28787 4.48206,-3.81562 9.02812,-7.56143 13.07271,-11.86636 4.00016,-4.20228 8.06732,-8.33904 11.86376,-12.73314 0,0 7.80649,12.6648 7.80649,12.6648 z"
       inkscape:connector-curvature="0"
       inkscape:export-filename="/home/pi/Documents/flink_ssp/elt.png"
       inkscape:export-xdpi="90"
       inkscape:export-ydpi="90" />
    <path
       style="fill:#ff0000"
       id="path3065-6"
       d="m 412.048,496.22806 c 3.53689,2.69582 7.39127,4.92546 11.02394,7.49135 3.09205,2.09442 5.31054,5.07537 7.54148,8.01997 2.38248,3.04324 4.92203,5.92939 7.11368,9.11969 5.20655,6.82582 8.47569,14.55319 11.54383,22.42133 1.66708,3.6044 2.52438,7.49041 3.68152,11.26958 1.12133,3.35616 1.33741,6.90451 1.52567,10.41329 0.11397,3.15234 0.1164,6.30753 0.10771,9.46154 -0.45643,3.30026 -0.54921,6.64522 -1.0432,9.93711 -0.30526,2.99657 -1.11732,5.89231 -1.56515,8.86493 -0.31538,2.35136 -0.92211,4.63989 -1.19427,7.00254 -0.41135,2.09421 -1.11097,4.10014 -1.63404,6.16322 -0.4455,1.95004 -0.51163,3.95474 -0.55737,5.94666 -0.16987,1.99844 -0.39015,4.11943 -1.01348,6.03766 -0.9265,1.79715 -2.69376,3.05773 -4.28988,4.2429 -1.39136,1.04621 -2.58431,2.25034 -3.74847,3.54392 -1.35501,1.58574 -2.74683,3.16874 -3.84865,4.95097 -0.19,0.29247 -0.38,0.58496 -0.57,0.87744 0,0 -8.00285,-12.58647 -8.00285,-12.58647 l 0,0 c 0.1907,-0.29561 0.3814,-0.59122 0.5721,-0.88682 1.22529,-1.78332 2.62766,-3.43207 4.03831,-5.06718 1.21781,-1.3771 2.51718,-2.62481 3.99127,-3.72289 1.342,-1.0036 2.9279,-2.02447 3.45659,-3.69877 0.39795,-1.91632 0.73285,-3.86425 0.74293,-5.82696 0.0995,-2.06773 0.27094,-4.14003 0.8393,-6.13957 0.56983,-1.99624 1.16381,-3.99006 1.47858,-6.04852 0.363,-2.33972 0.95553,-4.63369 1.25987,-6.98352 0.52397,-2.93365 1.26311,-5.82661 1.55245,-8.801 0.37416,-3.27146 0.67577,-6.56061 0.86838,-9.84691 -10e-4,-3.12487 0.0193,-6.25226 -0.15789,-9.37346 -0.23572,-3.45592 -0.65585,-6.89361 -1.77726,-10.18833 -1.0741,-3.78227 -2.16854,-7.56151 -3.76272,-11.16327 -0.72738,-1.84026 -1.46969,-3.67269 -2.24421,-5.49337 -0.21787,-0.51216 -0.9495,-2.0087 -0.66214,-1.53273 1.99443,3.30355 9.46406,16.18029 5.79236,10.02547 -0.70716,-1.02884 -1.33207,-2.11461 -2.05893,-3.12938 -1.52173,-2.1245 -3.49285,-3.89099 -4.99486,-6.03369 -2.2212,-2.90443 -4.24811,-6.00406 -7.17058,-8.25372 -3.54742,-2.61851 -7.26362,-4.95203 -11.03144,-7.23175 0,0 -5.80258,-13.78126 -5.80258,-13.78126 z"
       inkscape:connector-curvature="0"
       inkscape:export-filename="/home/pi/Documents/flink_ssp/elt.png"
       inkscape:export-xdpi="90"
       inkscape:export-ydpi="90" />
    <path
       style="fill:#ff0000"
       id="path3067-1"
       d="m 477.952,601.98036 c -4.07957,4.1103 -8.11027,8.27463 -12.10325,12.47225 -4.08446,4.33506 -8.66924,8.12536 -13.12027,12.05715 -2.76341,2.52915 -5.34588,5.30348 -7.62657,8.28583 -1.64511,2.30928 -3.77225,4.21722 -5.93304,6.02165 -5.24411,6.02437 -10.85512,-5.58486 -10.68897,-12.39095 -0.76548,-3.55614 -1.33352,-7.153 -2.17,-10.69468 -0.9796,-3.93403 -1.74028,-7.92898 -2.8845,-11.81899 -1.11663,-3.20308 -1.67516,-6.56032 -2.52378,-9.83179 -0.18587,-0.71654 -1.18993,-3.76503 -1.44426,-4.54577 -1.08041,-3.04597 -1.62173,-6.2318 -1.86666,-9.44603 -0.0181,-0.39174 -0.0362,-0.78349 -0.0543,-1.17523 0,0 8.7724,12.03071 8.7724,12.03071 l 0,0 c 0.028,0.37856 0.0559,0.75712 0.0839,1.13568 0.3343,3.10842 0.99548,6.15628 2.01414,9.11426 1.44807,4.78221 2.42943,9.68894 3.96198,14.44874 1.03386,3.91351 1.8671,7.88075 2.79125,11.8216 0.77664,3.6481 1.51271,7.30709 2.24451,10.96384 2.32553,6.19911 -7.77265,-14.71723 -7.49335,-11.19852 0.0247,0.31163 0.5743,-0.25485 0.81358,-0.45344 0.28586,-0.23726 0.55637,-0.49274 0.83455,-0.73912 2.06798,-1.77593 4.12609,-3.58034 5.70515,-5.83462 2.43216,-2.95665 5.04418,-5.79322 7.94451,-8.28787 4.48206,-3.81562 9.02812,-7.56143 13.07271,-11.86636 4.00016,-4.20228 8.06732,-8.33904 11.86376,-12.73314 0,0 7.80649,12.6648 7.80649,12.6648 z"
       inkscape:connector-curvature="0"
       inkscape:export-filename="/home/pi/Documents/flink_ssp/elt.png"
       inkscape:export-xdpi="90"
       inkscape:export-ydpi="90" />
    <path
       style="fill:#ff0000"
       id="path3065-6-4"
       d="m 423.5889,650.99216 c -3.53689,-2.69582 -7.39127,-4.92546 -11.02394,-7.49135 -3.09205,-2.09442 -5.31054,-5.07537 -7.54148,-8.01997 -2.38248,-3.04324 -4.92203,-5.92939 -7.11368,-9.11969 -5.20655,-6.82582 -8.47569,-14.55319 -11.54383,-22.42133 -1.66708,-3.6044 -2.52438,-7.49041 -3.68152,-11.26958 -1.12133,-3.35616 -1.33741,-6.90451 -1.52567,-10.41329 -0.11397,-3.15234 -0.1164,-6.30753 -0.10771,-9.46154 0.45643,-3.30026 0.54921,-6.64522 1.0432,-9.93711 0.30526,-2.99657 1.11732,-5.89231 1.56515,-8.86493 0.31538,-2.35136 0.92211,-4.63989 1.19427,-7.00254 0.41135,-2.09421 1.11097,-4.10014 1.63404,-6.16322 0.4455,-1.95004 0.51163,-3.95474 0.55737,-5.94666 0.16987,-1.99844 0.39015,-4.11943 1.01348,-6.03766 0.9265,-1.79715 2.69376,-3.05773 4.28988,-4.2429 1.39136,-1.04621 2.58431,-2.25034 3.74847,-3.54392 1.35501,-1.58574 2.74683,-3.16874 3.84865,-4.95097 0.19,-0.29247 0.38,-0.58496 0.57,-0.87744 0,0 8.00285,12.58647 8.00285,12.58647 l 0,0 c -0.1907,0.29561 -0.3814,0.59122 -0.5721,0.88682 -1.22529,1.78332 -2.62766,3.43207 -4.03831,5.06718 -1.21781,1.3771 -2.51718,2.62481 -3.99127,3.72289 -1.342,1.0036 -2.9279,2.02447 -3.45659,3.69877 -0.39795,1.91632 -0.73285,3.86425 -0.74293,5.82696 -0.0995,2.06773 -0.27094,4.14003 -0.8393,6.13957 -0.56983,1.99624 -1.16381,3.99006 -1.47858,6.04852 -0.363,2.33972 -0.95553,4.63369 -1.25987,6.98352 -0.52397,2.93365 -1.26311,5.82661 -1.55245,8.801 -0.37416,3.27146 -0.67577,6.56061 -0.86838,9.84691 10e-4,3.12487 -0.0193,6.25226 0.15789,9.37346 0.23572,3.45592 0.65585,6.89361 1.77726,10.18833 1.0741,3.78227 2.16854,7.56151 3.76272,11.16327 0.72738,1.84026 1.46969,3.67269 2.24421,5.49337 0.21787,0.51216 0.9495,2.0087 0.66214,1.53273 -1.99443,-3.30355 -9.46406,-16.18029 -5.79236,-10.02547 0.70716,1.02884 1.33207,2.11461 2.05893,3.12938 1.52173,2.1245 3.49285,3.89099 4.99486,6.03369 2.2212,2.90443 4.24811,6.00406 7.17058,8.25372 3.54742,2.61851 7.26362,4.95203 11.03144,7.23175 0,0 5.80258,13.78126 5.80258,13.78126 z"
       inkscape:connector-curvature="0"
       inkscape:export-filename="/home/pi/Documents/flink_ssp/elt.png"
       inkscape:export-xdpi="90"
       inkscape:export-ydpi="90" />
    <path
       style="fill:#ff0000"
       id="path3067-1-2"
       d="m 358.5364,541.42974 c 4.07957,-4.1103 8.11027,-8.27463 12.10325,-12.47225 4.08446,-4.33506 8.66924,-8.12536 13.12027,-12.05715 2.76341,-2.52915 5.34588,-5.30348 7.62657,-8.28583 1.64511,-2.30928 3.77225,-4.21722 5.93304,-6.02165 5.24411,-6.02437 10.85512,5.58486 10.68897,12.39095 0.76548,3.55614 1.33352,7.153 2.17,10.69468 0.9796,3.93403 1.74028,7.92898 2.8845,11.81899 1.11663,3.20308 1.67516,6.56032 2.52378,9.83179 0.18587,0.71654 1.18993,3.76503 1.44426,4.54577 1.08041,3.04597 1.62173,6.2318 1.86666,9.44603 0.0181,0.39174 0.0362,0.78349 0.0543,1.17523 0,0 -8.7724,-12.03071 -8.7724,-12.03071 l 0,0 c -0.028,-0.37856 -0.0559,-0.75712 -0.0839,-1.13568 -0.3343,-3.10842 -0.99548,-6.15628 -2.01414,-9.11426 -1.44807,-4.78221 -2.42943,-9.68894 -3.96198,-14.44874 -1.03386,-3.91351 -1.8671,-7.88075 -2.79125,-11.8216 -0.77664,-3.6481 -1.51271,-7.30709 -2.24451,-10.96384 -2.32553,-6.19911 7.77265,14.71723 7.49335,11.19852 -0.0247,-0.31163 -0.5743,0.25485 -0.81358,0.45344 -0.28586,0.23726 -0.55637,0.49274 -0.83455,0.73912 -2.06798,1.77593 -4.12609,3.58034 -5.70515,5.83462 -2.43216,2.95665 -5.04418,5.79322 -7.94451,8.28787 -4.48206,3.81562 -9.02812,7.56143 -13.07271,11.86636 -4.00016,4.20228 -8.06732,8.33904 -11.86376,12.73314 0,0 -7.80649,-12.6648 -7.80649,-12.6648 z"
       inkscape:connector-curvature="0"
       inkscape:export-filename="/home/pi/Documents/flink_ssp/elt.png"
       inkscape:export-xdpi="90"
       inkscape:export-ydpi="90" />
    <g
       id="lab_1_"
       transform="matrix(3.3124638,0,0,3.4375,83.00141,650.36218)"
       inkscape:export-filename="/home/pi/Documents/flink_ssp/elt.png"
       inkscape:export-xdpi="90"
       inkscape:export-ydpi="90">
      <path
         id="path3370"
         d="M 20.682,3.732 C 20.209,3.26 19.582,3 18.914,3 18.246,3 17.619,3.26 17.144,3.733 l -1.41,1.412 C 15.261,5.617 15,6.245 15,6.914 c 0,0.471 0.129,0.922 0.371,1.313 L 1.794,13.666 c -0.908,0.399 -1.559,1.218 -1.742,2.189 -0.185,0.977 0.125,1.979 0.834,2.687 l 12.72,12.58 c 0.548,0.548 1.276,0.859 2.045,0.877 C 15.669,32 15.711,32 15.729,32 c 0.202,0 0.407,-0.021 0.61,-0.062 0.994,-0.206 1.808,-0.893 2.177,-1.828 l 5.342,-13.376 c 0.402,0.265 0.875,0.407 1.367,0.407 0.67,0 1.297,-0.261 1.768,-0.733 L 28.4,15 c 0.477,-0.474 0.738,-1.103 0.738,-1.773 0,-0.67 -0.262,-1.3 -0.732,-1.768 L 20.682,3.732 z m -4.023,25.635 c -0.124,0.313 -0.397,0.544 -0.727,0.612 -0.076,0.016 -0.153,0.022 -0.229,0.021 -0.254,-0.006 -0.499,-0.108 -0.682,-0.292 L 2.293,17.12 C 2.059,16.887 1.956,16.553 2.018,16.227 2.079,15.903 2.297,15.629 2.6,15.497 l 6.217,-2.49 c 4.189,1.393 8.379,0.051 12.57,4.522 L 16.659,29.367 z M 26.992,13.58 25.578,14.993 c -0.195,0.196 -0.512,0.196 -0.707,0 l -1.768,-1.767 -1.432,3.589 0.119,-0.303 C 18.78,13.507 15.721,13.128 12.961,12.789 12.074,12.68 11.214,12.566 10.369,12.384 L 18.86,8.983 17.145,7.268 c -0.195,-0.195 -0.195,-0.512 0,-0.707 l 1.414,-1.415 c 0.195,-0.195 0.512,-0.195 0.707,0 l 7.725,7.727 c 0.198,0.195 0.198,0.512 0.001,0.707 z"
         inkscape:connector-curvature="0"
         style="fill:#333333" />
      <path
         id="path3372"
         d="M 16.5,21 C 17.878,21 19,19.879 19,18.5 19,17.121 17.879,16 16.5,16 15.121,16 14,17.121 14,18.5 c 0,1.379 1.122,2.5 2.5,2.5 z m 0,-4 C 17.328,17 18,17.672 18,18.5 18,19.328 17.328,20 16.5,20 15.671,20 15,19.328 15,18.5 15,17.672 15.671,17 16.5,17 z"
         inkscape:connector-curvature="0"
         style="fill:#333333" />
      <path
         id="path3374"
         d="M 29.5,0 C 28.121,0 27,1.121 27,2.5 27,3.879 28.121,5 29.5,5 30.879,5 32,3.879 32,2.5 32,1.121 30.879,0 29.5,0 z m 0,4 C 28.672,4 28,3.328 28,2.5 28,1.672 28.672,1 29.5,1 30.328,1 31,1.672 31,2.5 31,3.328 30.328,4 29.5,4 z"
         inkscape:connector-curvature="0"
         style="fill:#333333" />
      <path
         id="path3376"
         d="m 8,17 c 0,1.103 0.897,2 2,2 1.103,0 2,-0.897 2,-2 0,-1.103 -0.897,-2 -2,-2 -1.103,0 -2,0.897 -2,2 z m 2,-1 c 0.552,0 1,0.447 1,1 0,0.553 -0.448,1 -1,1 -0.552,0 -1,-0.447 -1,-1 0,-0.553 0.448,-1 1,-1 z"
         inkscape:connector-curvature="0"
         style="fill:#333333" />
      <circle
         id="circle3378"
         r="1"
         cy="23"
         cx="13"
         sodipodi:cx="13"
         sodipodi:cy="23"
         sodipodi:rx="1"
         sodipodi:ry="1"
         style="fill:#333333"
         d="m 14,23 c 0,0.552285 -0.447715,1 -1,1 -0.552285,0 -1,-0.447715 -1,-1 0,-0.552285 0.447715,-1 1,-1 0.552285,0 1,0.447715 1,1 z" />
      <circle
         id="circle3380"
         r="1"
         cy="8"
         cx="29"
         sodipodi:cx="29"
         sodipodi:cy="8"
         sodipodi:rx="1"
         sodipodi:ry="1"
         style="fill:#333333"
         d="m 30,8 c 0,0.5522847 -0.447715,1 -1,1 -0.552285,0 -1,-0.4477153 -1,-1 0,-0.5522847 0.447715,-1 1,-1 0.552285,0 1,0.4477153 1,1 z" />
    </g>
    <g
       id="g3418"
       transform="matrix(0.13469388,0,0,0.12432215,356.65306,656.20111)"
       inkscape:export-filename="/home/pi/Documents/flink_ssp/elt.png"
       inkscape:export-xdpi="90"
       inkscape:export-ydpi="90">
      <g
         id="g3420">
        <path
           id="path3422"
           d="m 809.3,124.6 1.5,-49.4 C 719.4,29.5 617.9,2.1 506.3,2.1 394.8,2.1 280.5,29.5 189.1,75.2 l 1.5,49.4 L 500,327.5 809.3,124.6 z M 500,100.5 c 63.6,0 117,20.4 117,20.4 L 500,199.5 383,120.9 c 0,0 53.4,-20.4 117,-20.4 z m 70.3,659 V 521.3 l 15.9,-204.8 -86.2,56.7 -84.1,-56.7 18,204.8 V 759.5 H 570.3 z M 377.5,294.6 147.1,141 145.6,81.2 H 10 L 30.1,371.3 194.7,489 H 395.8 L 377.5,294.6 z M 116,307.4 333.6,409.8 337.2,443.4 121.5,345.8 116,307.4 z m -9.1,-104.2 215.7,104.2 5.5,36.3 -217.6,-100.3 -3.6,-40.2 z m -3.7,643.6 160.7,82.3 V 609.7 l -94.9,-59 v -36.6 l -93.2,-64 27.4,396.7 0,0 z M 400,794 V 556 l -104.2,53 v 345.6 l 47,29.2 64,-156 h 186.5 l 64,156 49.1,-29.2 V 609.1 l -104.2,-53 V 794 l -202.2,0 0,0 z m 37.8,70.5 -47.5,133.4 H 609.7 L 562.2,864.5 H 437.8 z M 604.2,489 H 805.3 L 969.9,371.4 990,81.3 H 854.4 l -1.6,59.8 -230.4,153.5 -18.2,194.4 0,0 z M 878.4,345.8 660.6,447.6 666.4,409.8 884,307.4 l -5.6,38.4 z m 11,-102.4 -217.5,102.4 5.5,-38.4 215.7,-104.2 -3.7,40.2 z m 34.7,206.6 -93.2,64 v 36.6 l -93.5,59 V 929 L 896.7,846.7 924.1,450 z"
           inkscape:connector-curvature="0" />
      </g>
    </g>
  </g>
</svg>
