<?xml version="1.0" encoding="UTF-8" standalone="no"?>
<!-- Created with Inkscape (http://www.inkscape.org/) -->

<svg
   xmlns:dc="http://purl.org/dc/elements/1.1/"
   xmlns:cc="http://creativecommons.org/ns#"
   xmlns:rdf="http://www.w3.org/1999/02/22-rdf-syntax-ns#"
   xmlns:svg="http://www.w3.org/2000/svg"
   xmlns="http://www.w3.org/2000/svg"
   xmlns:sodipodi="http://sodipodi.sourceforge.net/DTD/sodipodi-0.dtd"
   xmlns:inkscape="http://www.inkscape.org/namespaces/inkscape"
   width="1052.3622"
   height="744.09448"
   id="svg2"
   version="1.1"
   inkscape:version="0.48.4 r9939"
   sodipodi:docname="kafka2vertika.svg">
  <defs
     id="defs4" />
  <sodipodi:namedview
     id="base"
     pagecolor="#ffffff"
     bordercolor="#666666"
     borderopacity="1.0"
     inkscape:pageopacity="0.0"
     inkscape:pageshadow="2"
     inkscape:zoom="0.71"
     inkscape:cx="257"
     inkscape:cy="341.97183"
     inkscape:document-units="px"
     inkscape:current-layer="layer1"
     showgrid="false"
     inkscape:window-width="1535"
     inkscape:window-height="876"
     inkscape:window-x="65"
     inkscape:window-y="24"
     inkscape:window-maximized="1" />
  <metadata
     id="metadata7">
    <rdf:RDF>
      <cc:Work
         rdf:about="">
        <dc:format>image/svg+xml</dc:format>
        <dc:type
           rdf:resource="http://purl.org/dc/dcmitype/StillImage" />
        <dc:title></dc:title>
      </cc:Work>
    </rdf:RDF>
  </metadata>
  <g
     inkscape:label="Layer 1"
     inkscape:groupmode="layer"
     id="layer1"
     transform="translate(0,-308.2677)">
    <g
       transform="matrix(1.8048147,0,0,-1.6925233,31.403107,824.93153)"
       inkscape:label="ink_ext_XXXXXX"
       id="g3012"
       inkscape:export-filename="/home/pi/Documents/flink_ssp/kafka2vertika.png"
       inkscape:export-xdpi="90"
       inkscape:export-ydpi="90">
      <g
         transform="scale(0.1,0.1)"
         id="g3014">
        <path
           id="path3016"
           style="fill:#ffffff;fill-opacity:1;fill-rule:nonzero;stroke:none"
           d="m 0,0 1814.17,0 0,1814.18 L 0,1814.18 0,0 z"
           inkscape:connector-curvature="0" />
        <path
           id="path3018"
           style="fill:#231f20;fill-opacity:1;fill-rule:nonzero;stroke:none"
           d="m 765.172,1508.13 0,0 c -16.168,16.18 -38.613,26.19 -63.613,26.19 -24.957,0 -47.219,-10.01 -63.2,-26.19 l -0.421,0 c -16.102,-16.12 -26.102,-38.64 -26.102,-63.54 0,-25 10,-47.32 26.102,-63.34 l 0.421,-0.35 c 15.981,-16.12 38.243,-26.02 63.2,-26.02 25,0 47.445,9.9 63.613,26.02 l 0.183,0.35 c 16.2,16.02 26.063,38.34 26.063,63.34 0,24.9 -9.863,47.42 -26.063,63.54 l -0.183,0 z m -63.613,-1228.271 0,0 c 25,0 47.445,10.2 63.613,26.102 l 0.183,0.48 c 16.2,15.938 26.063,38.43 26.063,63.149 0,25 -9.863,47.41 -26.063,63.582 l -0.183,0 c -16.168,16.43 -38.613,26.34 -63.613,26.34 -24.957,0 -47.219,-9.91 -63.2,-26.34 l -0.421,0 C 621.836,417 611.836,394.59 611.836,369.59 c 0,-24.719 10,-47.211 26.102,-63.149 l 0.421,-0.48 c 15.981,-15.902 38.243,-26.102 63.2,-26.102 l 0,0 z m 488.851,271.86 0,0 c 22.21,5.84 42.35,20.109 54.61,41.652 l 1.68,3.149 0,0 c 10.91,20.492 12.91,44.109 7.08,65.011 -5.88,22.391 -20.31,42.231 -41.84,54.61 l -1.26,0.859 c -20.97,11.449 -44.86,13.98 -66.81,8.07 -22.31,-5.57 -42.35,-20.492 -54.57,-41.851 -12.37,-21.239 -14.97,-45.649 -9.04,-68.168 6.12,-22.11 20.43,-42.121 41.81,-54.621 l 0.15,0 c 21.42,-12.309 45.68,-14.571 68.19,-8.711 l 0,0 z m -396.82,447.316 0,0 c -23.567,23.515 -56.063,38.245 -92.031,38.245 -35.914,0 -68.34,-14.73 -91.864,-38.245 -23.406,-23.406 -37.859,-55.832 -37.859,-91.754 0,-36.019 14.453,-68.515 37.859,-92.222 23.524,-23.36 55.95,-37.969 91.864,-37.969 35.968,0 68.464,14.609 92.031,37.969 23.48,23.707 37.93,56.203 37.93,92.222 0,35.922 -14.45,68.348 -37.93,91.754 l 0,0 z m -51.754,152.955 0,0 c 52.227,-8.59 99.117,-33.59 134.961,-69.71 l 0.273,0 c 5.688,-5.76 11.254,-11.94 16.375,-18.24 l 89.598,51.87 c -12.059,36.36 -12.594,74.43 -2.914,110.1 12.781,47.74 43.751,90.51 90.181,117.38 l 1.53,0.92 c 45.92,26.03 98.14,31.39 145.27,18.63 47.75,-12.8 90.79,-43.89 117.61,-90.29 l 0,-0.07 c 26.65,-46.15 32.07,-99.07 19.34,-146.69 -12.69,-47.77 -43.8,-90.81 -90.18,-117.48 l -12.23,-7.27 -1.24,0 c -42.93,-20.437 -90.1,-23.585 -133.43,-12.21 -35.62,9.468 -68.24,29.3 -93.8,57.49 l -89.457,-51.643 c 10.293,-27.203 15.972,-56.554 15.972,-87.496 0,-30.851 -5.679,-60.574 -15.972,-87.972 l 89.457,-51.457 c 25.56,28.597 58.18,48.007 93.8,57.472 47.74,13.067 100.64,7.52 146.9,-19.453 l 2.96,-1.371 0,-0.199 c 44.67,-27.02 74.67,-68.871 87.22,-116.102 12.73,-47.32 7.31,-100.25 -19.34,-146.48 l -1.63,-3.258 0,0 -0.19,0.289 c -26.8,-44.531 -69.02,-74.711 -115.64,-87.512 -47.82,-12.597 -100.75,-7.207 -146.95,19.34 l 0,0.371 c -46.43,26.891 -77.4,69.75 -90.181,117.41 -9.68,35.59 -9.145,73.621 2.914,110.012 l -89.598,51.688 c -5.121,-6.309 -10.687,-12.207 -16.375,-17.957 l -0.273,-0.293 C 840.953,695.859 794.063,670.891 741.836,662.57 l 0,-103.55 c 37.227,-7.77 70.504,-26.372 96.621,-52.489 l 0,0 0.133,-0.269 c 35,-34.813 56.668,-83.332 56.668,-136.672 0,-53.149 -21.668,-101.41 -56.668,-136.399 l -0.133,-0.531 0,0 c -35.23,-35.012 -83.562,-56.699 -136.898,-56.699 -53.051,0 -101.532,21.687 -136.664,56.699 l -0.145,0 0,0.531 c -35.043,34.989 -56.742,83.25 -56.742,136.399 0,53.34 21.699,101.859 56.742,136.672 l 0,0.269 0.145,0 c 26.066,26.117 59.453,44.719 96.531,52.489 l 0,103.55 c -52.223,8.321 -99.043,33.289 -134.824,69.239 l -0.364,0.293 c -44.675,44.886 -72.691,106.664 -72.691,175.179 0,68.348 28.016,130.069 72.691,174.999 l 0.364,0 c 35.781,36.12 82.601,61.12 134.824,69.71 l 0,103.08 c -37.078,8.06 -70.465,26.65 -96.531,52.59 l -0.145,0 0,0.27 c -35.043,35.19 -56.742,83.32 -56.742,136.66 0,53.06 21.699,101.64 56.742,136.65 l 0,0 0.145,0.2 c 35.132,35.1 83.613,56.79 136.664,56.79 53.336,0 101.668,-21.69 136.898,-56.79 l 0,-0.2 0.133,0 c 35,-35.01 56.668,-83.59 56.668,-136.65 0,-53.34 -21.668,-101.47 -56.668,-136.66 l -0.133,-0.27 c -26.117,-25.94 -59.394,-44.53 -96.621,-52.59 l 0,-103.08 z m 503.184,68.71 -0.72,1.12 c -12.36,20.83 -32.09,34.71 -53.89,40.75 -22.51,5.92 -46.77,3.43 -68.34,-8.9 l 0.15,0 c -21.53,-12.23 -35.95,-32.22 -41.96,-54.65 -5.93,-22.22 -3.33,-46.75 9.04,-68.1 l 0.42,-0.59 c 12.4,-21.11 32.12,-35.27 54.15,-41.03 22.14,-6.17 46.81,-3.57 68.07,8.82 l 1.14,0.53 c 20.94,12.5 34.87,32.27 40.7,53.91 5.94,22.3 3.56,46.75 -8.76,68.14 l 0,0"
           inkscape:connector-curvature="0" />
      </g>
    </g>
    <g
       id="Page-1"
       style="fill:none;stroke:none"
       transform="matrix(0.5002811,0,0.00858944,0.46427648,479.23504,591.41573)"
       inkscape:export-filename="/home/pi/Documents/flink_ssp/kafka2vertika.png"
       inkscape:export-xdpi="90"
       inkscape:export-ydpi="90">
      <g
         transform="translate(-229,-348)"
         id="Desktop-HD">
        <g
           transform="translate(229,348)"
           id="Group">
          <path
             id="Shape"
             d="m 104.4456,327.70437 c -2.36369,-0.88689 -1.9205,-29.85849 0.44319,-29.85849 l 373.46318,0 c 204.31154,0 373.75864,-0.44345 376.27006,-0.88689 l 4.72738,-0.88688 0.29546,-47.59622 0.4432,-47.4484 14.77307,0 14.77306,0 0,63.26453 0,63.11672 -391.92951,0.44345 C 282.31335,328 105.18425,328 104.4456,327.70437 l 0,0 z"
             inkscape:connector-curvature="0"
             style="fill:#1f4475" />
          <path
             id="path3036"
             d="M 101.78644,259.11852 C 101.04779,258.08382 87.013375,233.25101 70.763,203.98378 54.660355,174.71654 31.909829,133.91978 20.386835,113.22578 8.8638413,92.679585 -0.29546138,74.794051 0.14773069,73.611537 0.88638413,71.985579 4.4319207,71.68995 17.579952,71.985579 l 16.545837,0.443443 7.238804,12.564218 c 3.988728,6.947274 19.500451,34.73637 34.568981,61.78639 15.06853,26.90221 27.773366,49.07436 28.364296,49.07436 0.88638,0 8.86384,-13.74673 47.12609,-82.03695 l 23.19371,-41.388018 65.00151,0 65.0015,0 0,14.781433 0,14.781435 -55.10355,0.73907 -55.10354,0.73907 -3.69327,6.65165 c -2.06823,3.69536 -19.94364,35.62325 -39.73956,70.95087 -42.3987,76.12439 -43.87601,78.63723 -45.94424,79.3763 -0.88638,0.29563 -2.36369,-0.29563 -3.25008,-1.33033 l 0,0 z"
             inkscape:connector-curvature="0"
             style="fill:#1a2c49" />
          <path
             id="path3038"
             d="m 177.57229,251.7278 c -0.4432,-1.0347 -0.59093,-24.8328 -0.4432,-52.91753 l 0.4432,-50.99594 63.52419,0 63.5242,0 0,14.78143 0,14.78144 -48.30794,0.44344 -48.45566,0.29563 0,22.17215 0,22.17215 48.45566,0.29563 48.30794,0.44344 0,14.78143 0,14.78144 -63.22874,0.44344 c -49.93297,0.29563 -63.37646,0 -63.81965,-1.47815 l 0,0 z"
             inkscape:connector-curvature="0"
             style="fill:#1a2c49" />
          <path
             id="path3040"
             d="m 314.96183,251.7278 c -0.44319,-1.0347 -0.59093,-41.83145 -0.44319,-90.61018 l 0.44319,-88.688598 48.75113,-0.443443 c 30.87571,-0.295629 52.29666,0.147814 58.35362,1.182515 19.64818,3.399729 34.12578,15.077061 39.14863,31.632266 2.80688,9.3123 2.80688,30.74538 0,40.2055 -2.51142,8.42541 -10.04569,18.03335 -18.17088,22.91122 -2.95461,1.77377 -5.61376,3.39973 -5.90922,3.54754 -0.14773,0.14782 7.68199,14.92925 17.57995,32.66697 22.45506,40.50113 25.26195,46.11807 24.22783,47.89184 -0.59092,0.88689 -8.12519,1.47815 -16.98903,1.47815 l -16.25037,0 -3.39781,-5.46913 c -1.9205,-3.1041 -11.0798,-19.21587 -20.2391,-35.91889 -9.15931,-16.70301 -17.57996,-31.48445 -18.90953,-32.81478 -1.9205,-2.36503 -5.31831,-2.66066 -29.10295,-2.66066 l -27.03471,0 -0.88639,13.74674 c -0.59092,7.39071 -0.88638,23.94592 -0.59092,36.51014 0.14773,12.56422 -0.14773,23.7981 -0.73865,24.8328 -0.88639,1.18252 -5.61377,1.77378 -15.21626,1.77378 -9.75023,0 -14.18215,-0.59126 -14.62534,-1.77378 l 0,0 z M 421.62338,143.23209 c 7.53427,-2.95629 11.07981,-9.90356 10.34115,-20.39838 -0.44319,-7.53853 -1.18184,-9.3123 -5.17057,-12.85985 -7.2388,-6.50383 -13.29576,-7.39071 -48.6034,-6.94727 l -32.20529,0.44344 -0.44319,17.73772 c -0.59092,26.90221 -3.54554,24.24155 28.21656,24.68499 31.61437,0.59126 41.36459,0 47.86474,-2.66065 l 0,0 z"
             inkscape:connector-curvature="0"
             style="fill:#1a2c49" />
          <path
             id="path3042"
             d="m 515.87556,251.7278 c -0.44319,-1.0347 -0.88638,-34.88418 -1.18184,-75.08968 l -0.29546,-73.16809 -20.97776,-0.44344 -20.83003,-0.44344 -4.57965,-7.981978 c -2.51142,-4.582245 -7.09107,-10.790446 -10.04569,-14.190176 -3.3978,-3.695358 -4.87511,-6.356016 -3.84099,-7.390717 0.88638,-0.886886 29.69386,-1.182514 76.67222,-1.0347 l 75.19492,0.443443 0,14.781433 0,14.781435 -29.8416,0.44344 -29.98933,0.29563 -0.29546,75.08968 -0.44319,74.94187 -14.47761,0.44344 c -10.63661,0.29563 -14.62533,-0.14782 -15.06853,-1.47815 l 0,0 z"
             inkscape:connector-curvature="0"
             style="fill:#1a2c49" />
          <path
             id="path3044"
             d="m 616.33243,251.7278 c -0.44319,-1.0347 -0.59092,-41.83145 -0.44319,-90.61018 l 0.44319,-88.688598 14.77307,0 14.77307,0 0,90.166738 0,90.16675 -14.47761,0.44344 c -10.63661,0.29563 -14.62534,-0.14782 -15.06853,-1.47815 l 0,0 z"
             inkscape:connector-curvature="0"
             style="fill:#1a2c49" />
          <path
             id="path3046"
             d="m 725.65314,250.98873 c -57.31951,-12.12077 -87.16111,-77.30689 -60.27412,-131.85038 10.78434,-21.87652 33.09167,-39.762054 57.31951,-45.970256 21.12549,-5.46913 48.30793,-2.956287 66.03561,6.060387 9.30704,4.730059 24.81876,17.442091 24.81876,20.398378 0,2.660661 -12.26165,24.537181 -14.62534,25.867511 -0.73865,0.59125 -5.3183,-2.51285 -10.04568,-6.50383 -4.72739,-4.1388 -12.85257,-9.60794 -18.17088,-12.26859 -8.71611,-4.28662 -10.78434,-4.73006 -23.63691,-4.73006 -12.70484,0 -14.9208,0.44344 -24.0801,4.73006 -24.81876,11.82514 -39.88729,39.31861 -35.30764,64.29923 4.72739,25.57188 24.67103,45.52681 50.22844,50.25687 17.28449,3.25192 37.52359,-3.39973 50.52389,-16.40739 6.35242,-6.50383 15.51173,-21.28526 65.59243,-107.313202 18.46633,-31.484452 19.94364,-33.701667 22.30733,-32.07571 0.88639,0.591258 18.46634,30.301938 39.14863,66.073002 20.53457,35.77107 44.31921,77.01127 52.73986,91.49707 8.42065,14.63362 15.06853,27.34566 14.62534,28.52817 -0.59092,1.47814 -4.72738,1.92159 -16.8413,1.92159 -13.44349,0 -16.39811,-0.44345 -18.46634,-2.51285 -1.18184,-1.47814 -18.02314,-29.85849 -37.37586,-63.11672 -28.21656,-48.33528 -35.45537,-59.8648 -36.63721,-57.94321 -0.88638,1.18251 -12.55711,20.98963 -26.0006,43.90085 -29.10295,49.66562 -36.78494,58.83011 -57.61497,69.02929 -6.94334,3.39973 -16.54584,7.24291 -21.42095,8.42542 -10.93207,2.80847 -29.25068,2.66066 -42.8419,-0.29563 l 0,0 z"
             inkscape:connector-curvature="0"
             style="fill:#1a2c49" />
          <path
             id="path3048"
             d="M 90.411181,124.60748 C 89.967989,123.57278 89.820258,95.044615 89.967989,61.342947 L 90.411181,0 482.63616,0 l 392.22498,0 0,14.781433 0,14.781433 -377.00872,0.443443 -377.15645,0.295629 -0.29546,47.744029 -0.44319,47.596213 -14.47761,0.44344 c -10.636608,0.29563 -14.625337,-0.14781 -15.068529,-1.47814 l 0,0 z"
             inkscape:connector-curvature="0"
             style="fill:#1f4475" />
        </g>
      </g>
    </g>
    <path
       style="fill:#ff0000"
       id="path3065"
       d="m 314.41527,701.65844 c 2.69582,-3.53689 4.92546,-7.39127 7.49135,-11.02394 2.09442,-3.09205 5.07537,-5.31054 8.01997,-7.54148 3.04324,-2.38248 5.92939,-4.92203 9.11969,-7.11368 6.82582,-5.20655 14.55319,-8.47569 22.42133,-11.54383 3.6044,-1.66708 7.49041,-2.52438 11.26958,-3.68152 3.35616,-1.12133 6.90451,-1.33741 10.41329,-1.52567 3.15234,-0.11397 6.30753,-0.1164 9.46154,-0.10771 3.30026,0.45643 6.64522,0.54921 9.93711,1.0432 2.99657,0.30526 5.89231,1.11732 8.86493,1.56515 2.35136,0.31538 4.63989,0.92211 7.00254,1.19427 2.09421,0.41135 4.10014,1.11097 6.16322,1.63404 1.95004,0.4455 3.95474,0.51163 5.94666,0.55737 1.99844,0.16987 4.11943,0.39015 6.03766,1.01348 1.79715,0.9265 3.05773,2.69376 4.2429,4.28988 1.04621,1.39136 2.25034,2.58431 3.54392,3.74847 1.58574,1.35501 3.16874,2.74683 4.95097,3.84865 0.29247,0.19 0.58496,0.38 0.87744,0.57 0,0 -12.58647,8.00285 -12.58647,8.00285 l 0,0 c -0.29561,-0.1907 -0.59122,-0.3814 -0.88682,-0.5721 -1.78332,-1.22529 -3.43207,-2.62766 -5.06718,-4.03831 -1.3771,-1.21781 -2.62481,-2.51718 -3.72289,-3.99127 -1.0036,-1.342 -2.02447,-2.9279 -3.69877,-3.45659 -1.91632,-0.39795 -3.86425,-0.73285 -5.82696,-0.74293 -2.06773,-0.0995 -4.14003,-0.27094 -6.13957,-0.8393 -1.99624,-0.56983 -3.99006,-1.16381 -6.04852,-1.47858 -2.33972,-0.363 -4.63369,-0.95553 -6.98352,-1.25987 -2.93365,-0.52397 -5.82661,-1.26311 -8.801,-1.55245 -3.27146,-0.37416 -6.56061,-0.67577 -9.84691,-0.86838 -3.12487,10e-4 -6.25226,-0.0193 -9.37346,0.15789 -3.45592,0.23572 -6.89361,0.65585 -10.18833,1.77726 -3.78227,1.0741 -7.56151,2.16854 -11.16327,3.76272 -1.84026,0.72738 -3.67269,1.46969 -5.49337,2.24421 -0.51216,0.21787 -2.0087,0.9495 -1.53273,0.66214 3.30355,-1.99443 16.18029,-9.46406 10.02547,-5.79236 -1.02884,0.70716 -2.11461,1.33207 -3.12938,2.05893 -2.1245,1.52173 -3.89099,3.49285 -6.03369,4.99486 -2.90443,2.2212 -6.00406,4.24811 -8.25372,7.17058 -2.61851,3.54742 -4.95203,7.26362 -7.23175,11.03144 0,0 -13.78126,5.80258 -13.78126,5.80258 z"
       inkscape:connector-curvature="0"
       inkscape:export-filename="/home/pi/Documents/flink_ssp/kafka2vertika.png"
       inkscape:export-xdpi="90"
       inkscape:export-ydpi="90" />
    <path
       style="fill:#ff0000"
       id="path3067"
       d="m 417.99838,633.77513 c 4.1103,4.07957 8.27463,8.11027 12.47225,12.10325 4.33506,4.08446 8.12536,8.66924 12.05715,13.12027 2.52915,2.76341 5.30348,5.34588 8.28583,7.62657 2.30928,1.64511 4.21722,3.77225 6.02165,5.93304 6.02437,5.24411 -5.58486,10.85512 -12.39095,10.68897 -3.55614,0.76548 -7.153,1.33352 -10.69468,2.17 -3.93403,0.9796 -7.92898,1.74028 -11.81899,2.8845 -3.20308,1.11663 -6.56032,1.67516 -9.83179,2.52378 -0.71654,0.18587 -3.76503,1.18993 -4.54577,1.44426 -3.04597,1.08041 -6.2318,1.62173 -9.44603,1.86666 -0.39174,0.0181 -0.78349,0.0362 -1.17523,0.0543 0,0 12.03071,-8.7724 12.03071,-8.7724 l 0,0 c 0.37856,-0.028 0.75712,-0.0559 1.13568,-0.0839 3.10842,-0.3343 6.15628,-0.99548 9.11426,-2.01414 4.78221,-1.44807 9.68894,-2.42943 14.44874,-3.96198 3.91351,-1.03386 7.88075,-1.8671 11.8216,-2.79125 3.6481,-0.77664 7.30709,-1.51271 10.96384,-2.24451 6.19911,-2.32553 -14.71723,7.77265 -11.19852,7.49335 0.31163,-0.0247 -0.25485,-0.5743 -0.45344,-0.81358 -0.23726,-0.28586 -0.49274,-0.55637 -0.73912,-0.83455 -1.77593,-2.06798 -3.58034,-4.12609 -5.83462,-5.70515 -2.95665,-2.43216 -5.79322,-5.04418 -8.28787,-7.94451 -3.81562,-4.48206 -7.56143,-9.02812 -11.86636,-13.07271 -4.20228,-4.00016 -8.33904,-8.06732 -12.73314,-11.86376 0,0 12.6648,-7.80649 12.6648,-7.80649 z"
       inkscape:connector-curvature="0"
       inkscape:export-filename="/home/pi/Documents/flink_ssp/kafka2vertika.png"
       inkscape:export-xdpi="90"
       inkscape:export-ydpi="90" />
  </g>
</svg>
